<svg width="240" height="88" viewBox="150 152 228 88" fill="none" xmlns="http://www.w3.org/2000/svg">
  <g filter="url(#filter0_f_261_3352)">
    <path d="M260.135 190.722C258.438 191.91 256.57 193.608 255.042 195.136C256.061 193.438 256.74 192.759 258.268 191.401C259.287 190.552 262.852 188.176 263.191 187.666C263.701 186.987 264.04 185.968 263.531 185.289C263.531 185.12 258.268 188.345 257.759 188.685C254.193 190.892 250.628 193.269 247.742 196.155C246.044 197.853 244.516 200.06 243.158 202.097C241.8 204.134 241.97 204.134 241.121 204.813C240.272 205.492 239.084 206.341 237.895 207.02C232.632 210.416 227.37 213.811 221.767 216.527C215.825 219.414 209.713 221.621 203.262 222.809C185.266 226.544 164.214 218.565 161.498 198.022C158.612 175.443 178.645 160.842 198.678 159.484C208.695 158.805 217.862 162.2 226.69 166.784C230.595 168.822 234.5 171.198 238.065 173.915C239.933 175.273 241.8 176.631 243.498 177.989C244.347 178.668 245.196 179.347 246.044 180.026C246.723 180.706 247.572 181.385 248.251 182.064C248.93 182.743 249.27 182.913 249.779 183.252C250.289 183.592 250.628 183.931 251.138 183.931C251.477 183.931 251.986 183.931 252.326 183.761C252.665 183.592 253.175 183.761 253.684 183.422C254.024 183.252 253.854 182.913 253.684 182.743C232.123 164.747 199.187 144.374 171.684 160.672C151.142 172.726 147.916 197.683 165.063 214.83C178.136 227.902 197.659 232.486 215.146 227.223C215.655 227.223 216.165 226.883 216.674 226.714C222.955 224.676 229.067 221.96 234.839 218.565C240.102 215.679 244.856 211.944 249.949 209.057C252.496 207.529 254.872 206.002 256.74 203.455C257.419 202.606 258.098 201.587 258.268 200.399C258.268 199.72 258.268 198.701 257.249 199.211C256.57 199.72 256.061 200.739 255.721 201.418C255.212 202.097 254.533 203.285 253.684 203.795C252.496 204.304 252.665 202.776 252.835 202.097C253.175 201.078 253.684 200.229 254.363 199.38C255.721 197.683 257.249 196.155 258.777 194.797C260.135 193.608 262.852 191.91 263.531 190.213C264.21 188.176 260.814 190.552 260.135 191.062V190.722Z" fill="url(#paint0_linear_261_3352)" stroke="url(#paint1_linear_261_3352)" stroke-width="1.69772"/>
    <path d="M317.858 226.544C312.255 224.846 306.992 222.469 301.73 219.753C299.523 218.565 297.316 217.206 295.108 215.848C292.901 214.49 290.185 212.792 287.639 211.095C285.092 209.397 282.715 207.699 280.338 206.001C277.962 204.304 275.924 202.776 273.887 201.078C273.378 200.739 272.868 200.399 272.529 199.89C272.529 199.89 272.529 199.89 272.529 199.72C272.699 199.38 273.038 199.041 273.208 198.701C273.378 198.362 273.717 198.022 273.887 197.852C274.057 197.852 274.396 197.852 274.566 198.022C275.075 198.362 275.415 198.871 275.924 199.211C276.264 199.55 276.603 199.72 276.943 200.059C277.792 200.739 278.641 201.418 279.659 202.097C280.678 202.776 282.036 203.964 283.224 204.813C285.431 206.341 287.639 207.869 289.846 209.397C297.655 214.49 305.974 219.074 314.972 221.62C339.758 228.581 370.317 215.678 368.28 185.799C367.092 167.463 347.059 157.956 330.93 159.484C318.197 160.672 306.144 166.784 295.618 173.915C285.092 181.045 292.053 176.461 290.185 177.819C287.978 179.517 286.111 180.706 284.413 183.082C282.036 186.478 278.98 189.364 275.585 191.741C274.736 192.25 265.738 198.362 265.229 197.852C264.719 197.173 265.229 196.155 265.568 195.645C265.908 195.136 269.303 193.099 270.322 192.25C271.68 191.062 272.359 190.383 273.378 188.855C272.02 190.213 270.152 191.91 268.454 192.929C267.945 193.269 264.55 195.476 265.229 193.608C265.738 192.08 268.454 190.552 269.643 189.364C271.171 188.006 272.699 186.648 273.887 185.12C274.396 184.44 275.075 183.592 275.415 182.573C275.585 181.894 275.754 180.366 274.566 180.875C273.717 181.215 273.038 182.233 272.699 182.913C272.359 183.422 271.85 183.931 271.68 184.61C271.68 184.78 271.51 185.12 271.171 185.12C269.812 185.799 270.322 183.252 270.661 182.743C272.529 178.838 276.603 177.31 279.829 174.933C282.376 173.236 284.752 171.198 287.299 169.331C292.392 165.766 297.825 162.54 303.597 159.993C314.462 155.07 326.686 152.523 338.4 154.9C350.115 157.277 351.812 159.145 357.584 163.049C399.179 191.571 363.526 239.956 317.858 226.204V226.544Z" fill="url(#paint2_linear_261_3352)" stroke="url(#paint3_linear_261_3352)" stroke-width="1.69772"/>
  </g>
  <g filter="url(#filter1_d_261_3352)">
    <path d="M260.135 190.722C258.438 191.91 256.57 193.608 255.042 195.136C256.061 193.438 256.74 192.759 258.268 191.401C259.287 190.552 262.852 188.176 263.191 187.666C263.701 186.987 264.04 185.968 263.531 185.289C263.531 185.12 258.268 188.345 257.759 188.685C254.193 190.892 250.628 193.269 247.742 196.155C246.044 197.853 244.516 200.06 243.158 202.097C241.8 204.134 241.97 204.134 241.121 204.813C240.272 205.492 239.084 206.341 237.895 207.02C232.632 210.416 227.37 213.811 221.767 216.527C215.825 219.414 209.713 221.621 203.262 222.809C185.266 226.544 164.214 218.565 161.498 198.022C158.612 175.443 178.645 160.842 198.678 159.484C208.695 158.805 217.862 162.2 226.69 166.784C230.595 168.822 234.5 171.198 238.065 173.915C239.933 175.273 241.8 176.631 243.498 177.989C244.347 178.668 245.196 179.347 246.044 180.026C246.723 180.706 247.572 181.385 248.251 182.064C248.93 182.743 249.27 182.913 249.779 183.252C250.289 183.592 250.628 183.931 251.138 183.931C251.477 183.931 251.986 183.931 252.326 183.761C252.665 183.592 253.175 183.761 253.684 183.422C254.024 183.252 253.854 182.913 253.684 182.743C232.123 164.747 199.187 144.374 171.684 160.672C151.142 172.726 147.916 197.683 165.063 214.83C178.136 227.902 197.659 232.486 215.146 227.223C215.655 227.223 216.165 226.883 216.674 226.714C222.955 224.676 229.067 221.96 234.839 218.565C240.102 215.679 244.856 211.944 249.949 209.057C252.496 207.529 254.872 206.002 256.74 203.455C257.419 202.606 258.098 201.587 258.268 200.399C258.268 199.72 258.268 198.701 257.249 199.211C256.57 199.72 256.061 200.739 255.721 201.418C255.212 202.097 254.533 203.285 253.684 203.795C252.496 204.304 252.665 202.776 252.835 202.097C253.175 201.078 253.684 200.229 254.363 199.38C255.721 197.683 257.249 196.155 258.777 194.797C260.135 193.608 262.852 191.91 263.531 190.213C264.21 188.176 260.814 190.552 260.135 191.062V190.722Z" fill="#C1121F"/>
    <path d="M317.858 226.544C312.255 224.846 306.992 222.469 301.73 219.753C299.523 218.565 297.316 217.206 295.108 215.848C292.901 214.49 290.185 212.792 287.639 211.095C285.092 209.397 282.715 207.699 280.338 206.001C277.962 204.304 275.924 202.776 273.887 201.078C273.378 200.739 272.868 200.399 272.529 199.89C272.529 199.89 272.529 199.89 272.529 199.72C272.699 199.38 273.038 199.041 273.208 198.701C273.378 198.362 273.717 198.022 273.887 197.852C274.057 197.852 274.396 197.852 274.566 198.022C275.075 198.362 275.415 198.871 275.924 199.211C276.264 199.55 276.603 199.72 276.943 200.059C277.792 200.739 278.641 201.418 279.659 202.097C280.678 202.776 282.036 203.964 283.224 204.813C285.431 206.341 287.639 207.869 289.846 209.397C297.655 214.49 305.974 219.074 314.972 221.62C339.758 228.581 370.317 215.678 368.28 185.799C367.092 167.463 347.059 157.956 330.93 159.484C318.197 160.672 306.144 166.784 295.618 173.915C285.092 181.045 292.053 176.461 290.185 177.819C287.978 179.517 286.111 180.706 284.413 183.082C282.036 186.478 278.98 189.364 275.585 191.741C274.736 192.25 265.738 198.362 265.229 197.852C264.719 197.173 265.229 196.155 265.568 195.645C265.908 195.136 269.303 193.099 270.322 192.25C271.68 191.062 272.359 190.383 273.378 188.855C272.02 190.213 270.152 191.91 268.454 192.929C267.945 193.269 264.55 195.476 265.229 193.608C265.738 192.08 268.454 190.552 269.643 189.364C271.171 188.006 272.699 186.648 273.887 185.12C274.396 184.44 275.075 183.592 275.415 182.573C275.585 181.894 275.754 180.366 274.566 180.875C273.717 181.215 273.038 182.233 272.699 182.913C272.359 183.422 271.85 183.931 271.68 184.61C271.68 184.78 271.51 185.12 271.171 185.12C269.812 185.799 270.322 183.252 270.661 182.743C272.529 178.838 276.603 177.31 279.829 174.933C282.376 173.236 284.752 171.198 287.299 169.331C292.392 165.766 297.825 162.54 303.597 159.993C314.462 155.07 326.686 152.523 338.4 154.9C350.115 157.277 351.812 159.145 357.584 163.049C399.179 191.571 363.526 239.956 317.858 226.204V226.544Z" fill="#C1121F"/>
  </g>
  <g filter="url(#filter2_f_261_3352)">
    <path d="M172.117 163.1C185.573 155.127 200.394 156.089 214.618 161.341C228.563 166.491 241.837 175.734 252.479 184.543C252.374 184.558 252.242 184.582 252.101 184.633L251.946 184.7C251.913 184.717 251.821 184.746 251.647 184.763C251.484 184.78 251.312 184.78 251.138 184.78C251.092 184.78 251.032 184.771 250.896 184.689C250.821 184.644 250.739 184.588 250.628 184.508L250.25 184.244C249.783 183.933 249.527 183.802 249.064 183.368L248.852 183.162C248.491 182.801 248.09 182.444 247.712 182.108C247.422 181.851 247.146 181.605 246.892 181.364L246.645 181.124L246.611 181.09L246.574 181.061L245.302 180.042C244.877 179.703 244.453 179.363 244.028 179.024C242.741 177.994 241.36 176.966 239.963 175.945L238.564 174.926C235.409 172.523 231.997 170.387 228.56 168.516L227.083 167.729H227.082C218.204 163.119 208.868 159.64 198.621 160.334C188.433 161.025 178.225 165.082 170.916 171.871C163.702 178.571 159.313 187.937 160.591 199.286L160.656 199.828V199.832C162.055 210.407 168.189 217.761 176.258 221.97C184.298 226.164 194.254 227.237 203.415 225.34L203.416 225.341C209.549 224.211 215.369 222.176 221.012 219.527L222.138 218.989C227.791 216.248 233.094 212.825 238.347 209.436C239.571 208.734 240.783 207.868 241.651 207.173C242.116 206.802 242.353 206.573 242.648 206.143C242.777 205.956 242.922 205.724 243.104 205.437C243.197 205.29 243.304 205.123 243.429 204.929L243.864 204.265C245.225 202.225 246.712 200.084 248.343 198.453C251.155 195.641 254.647 193.307 258.205 191.104L258.218 191.097L258.229 191.088C258.465 190.932 259.889 190.052 261.272 189.222C261.827 188.89 262.368 188.57 262.814 188.313C262.769 188.427 262.715 188.542 262.648 188.652L262.513 188.855L262.498 188.874L262.487 188.884C262.471 188.9 262.434 188.937 262.365 188.997C262.252 189.096 262.096 189.222 261.902 189.372C261.517 189.67 261.018 190.034 260.488 190.416C259.583 191.067 258.559 191.79 257.956 192.261L257.725 192.447L257.714 192.456L257.704 192.464C256.142 193.853 255.394 194.597 254.314 196.397L255.643 197.434C256.754 196.323 258.035 195.133 259.286 194.125V194.458L260.645 193.438C260.911 193.238 261.591 192.758 262.247 192.388C261.903 192.813 261.428 193.268 260.862 193.744C260.411 194.123 259.938 194.489 259.479 194.844C259.028 195.193 258.582 195.539 258.219 195.856L258.777 196.495L258.218 195.855L258.213 195.86C256.66 197.24 255.096 198.803 253.7 200.548C252.975 201.455 252.409 202.391 252.03 203.526L252.02 203.557L252.012 203.588C251.919 203.958 251.794 204.665 251.92 205.264C251.983 205.566 252.151 206.023 252.615 206.28C253.034 206.512 253.482 206.466 253.86 206.333L254.019 206.272L254.071 206.25L254.121 206.22C254.689 205.879 255.151 205.347 255.505 204.882C255.688 204.643 255.857 204.399 256.006 204.184L256.4 203.625L256.446 203.564L256.48 203.495C256.652 203.151 256.848 202.764 257.076 202.402C257.191 202.22 257.305 202.059 257.417 201.923C257.417 201.958 257.418 201.994 257.418 202.031C257.269 202.962 256.724 203.814 256.077 204.623L256.066 204.636L256.056 204.651C254.302 207.042 252.065 208.495 249.53 210.016C246.952 211.477 244.463 213.152 241.987 214.802C239.502 216.459 237.026 218.095 234.432 219.518L234.42 219.524L234.409 219.531C229.049 222.684 223.392 225.246 217.577 227.217L216.412 227.604L216.405 227.606C216.116 227.702 215.758 227.873 215.583 227.946C215.349 228.043 215.224 228.072 215.146 228.072H215.021L214.901 228.108C197.705 233.284 178.508 228.772 165.663 215.927C157.26 207.524 153.887 197.253 155.083 187.644C156.242 178.335 161.698 169.57 171.184 163.665L172.114 163.102L172.117 163.1Z" fill="url(#paint4_linear_261_3352)" stroke="url(#paint5_linear_261_3352)" stroke-width="1.69772"/>
    <path d="M303.948 162.464C314.707 157.589 326.745 155.099 338.232 157.43C344.06 158.613 347.334 159.657 349.853 160.865C352.387 162.08 354.173 163.463 357.104 165.446V165.447C367.361 172.48 372.778 180.681 374.517 188.76C376.256 196.841 374.338 204.9 369.742 211.702C360.542 225.314 340.608 233.866 318.103 227.089L317.009 226.76V227.086C311.885 225.44 307.02 223.226 302.132 220.704C299.951 219.529 297.764 218.183 295.553 216.823C293.349 215.466 290.643 213.775 288.11 212.086C285.576 210.397 283.21 208.707 280.832 207.008C278.464 205.317 276.445 203.803 274.43 202.123L274.396 202.095L274.358 202.07L273.989 201.819C273.808 201.691 273.655 201.571 273.524 201.449C273.532 201.439 273.539 201.428 273.547 201.417C273.663 201.263 273.842 201.03 273.967 200.779C274.005 200.703 274.075 200.601 274.174 200.484C274.318 200.591 274.458 200.727 274.645 200.914C274.832 201.101 275.076 201.345 275.375 201.557C275.576 201.75 275.771 201.897 275.924 202.012C276.011 202.077 276.085 202.133 276.153 202.188L276.342 202.358L276.375 202.391L276.413 202.42C277.259 203.098 278.135 203.798 279.188 204.5C279.663 204.817 280.23 205.262 280.851 205.754C281.307 206.116 281.79 206.502 282.263 206.858L282.731 207.202L282.742 207.208L289.363 211.792L289.372 211.799L289.382 211.806C296.977 216.759 305.099 221.264 313.888 223.887L314.741 224.135H314.743C327.337 227.672 341.413 226.172 352.112 219.956C362.681 213.816 369.94 203.071 369.169 188.152L369.127 187.439C368.511 177.94 363.005 170.758 355.657 166.17C348.55 161.734 339.669 159.685 331.625 160.272L330.85 160.336C317.91 161.544 305.715 167.747 295.142 174.91C292.511 176.692 290.968 177.745 290.107 178.342C289.679 178.639 289.41 178.83 289.258 178.943C289.201 178.986 289.11 179.054 289.042 179.121C289.033 179.13 288.961 179.199 288.9 179.303C288.889 179.321 288.852 179.385 288.822 179.481C287.122 180.756 285.524 181.929 284.06 183.831L283.722 184.287L283.717 184.293C281.407 187.594 278.427 190.411 275.1 192.741C274.559 193.076 272.112 194.715 269.826 196.159C268.619 196.921 267.438 197.641 266.534 198.137C266.318 198.256 266.123 198.357 265.952 198.443C266.009 198.285 266.085 198.127 266.167 197.988L266.275 197.814C266.242 197.864 266.242 197.846 266.372 197.738C266.477 197.65 266.624 197.539 266.808 197.406C267.176 197.14 267.652 196.819 268.162 196.479C269.148 195.821 270.31 195.062 270.865 194.6L270.874 194.593L270.88 194.586C272.274 193.367 273.012 192.632 274.084 191.023L272.778 189.952C271.43 191.3 269.622 192.936 268.018 193.899L268 193.91L267.984 193.92C267.785 194.053 267.181 194.443 266.569 194.765C266.577 194.756 266.584 194.747 266.592 194.739C266.895 194.408 267.282 194.067 267.715 193.716C268.153 193.362 268.598 193.028 269.044 192.681C269.46 192.358 269.874 192.023 270.207 191.696C271.722 190.349 273.312 188.939 274.557 187.338L274.562 187.332L274.566 187.327C275.047 186.685 275.828 185.717 276.22 184.539L276.231 184.508L276.239 184.477C276.331 184.108 276.457 183.4 276.331 182.801C276.267 182.5 276.1 182.043 275.635 181.786C275.216 181.554 274.768 181.6 274.389 181.732L274.25 181.785C273.641 182.029 273.151 182.488 272.79 182.921C272.442 183.339 272.165 183.792 271.974 184.164C271.909 184.26 271.834 184.363 271.743 184.484C271.648 184.609 271.536 184.757 271.428 184.913C271.382 184.98 271.334 185.051 271.288 185.125C271.301 185.082 271.313 185.044 271.325 185.014L271.368 184.912L271.401 184.861L271.427 184.807C272.272 183.042 273.625 181.785 275.225 180.657C276.028 180.09 276.875 179.569 277.747 179.026C278.599 178.495 279.472 177.943 280.299 177.336L280.3 177.337C282.852 175.636 285.34 173.519 287.801 171.713L287.8 171.712C292.855 168.175 298.235 164.984 303.94 162.467V162.468L303.948 162.464Z" fill="url(#paint6_linear_261_3352)" stroke="url(#paint7_linear_261_3352)" stroke-width="1.69772"/>
  </g>
  <defs>
    <filter id="filter0_f_261_3352" x="0.356613" y="0.356552" width="529.287" height="382.646" filterUnits="userSpaceOnUse" color-interpolation-filters="sRGB">
      <feFlood flood-opacity="0" result="BackgroundImageFix"/>
      <feBlend mode="normal" in="SourceGraphic" in2="BackgroundImageFix" result="shape"/>
      <feGaussianBlur stdDeviation="76.3973" result="effect1_foregroundBlur_261_3352"/>
    </filter>
    <filter id="filter1_d_261_3352" x="147.209" y="154" width="235.582" height="88.9411" filterUnits="userSpaceOnUse" color-interpolation-filters="sRGB">
      <feFlood flood-opacity="0" result="BackgroundImageFix"/>
      <feColorMatrix in="SourceAlpha" type="matrix" values="0 0 0 0 0 0 0 0 0 0 0 0 0 0 0 0 0 0 127 0" result="hardAlpha"/>
      <feOffset dy="6.79087"/>
      <feGaussianBlur stdDeviation="3.39543"/>
      <feComposite in2="hardAlpha" operator="out"/>
      <feColorMatrix type="matrix" values="0 0 0 0 0 0 0 0 0 0 0 0 0 0 0 0 0 0 0.25 0"/>
      <feBlend mode="normal" in2="BackgroundImageFix" result="effect1_dropShadow_261_3352"/>
      <feBlend mode="normal" in="SourceGraphic" in2="effect1_dropShadow_261_3352" result="shape"/>
    </filter>
    <filter id="filter2_f_261_3352" x="52.137" y="53.8347" width="425.726" height="279.085" filterUnits="userSpaceOnUse" color-interpolation-filters="sRGB">
      <feFlood flood-opacity="0" result="BackgroundImageFix"/>
      <feBlend mode="normal" in="SourceGraphic" in2="BackgroundImageFix" result="shape"/>
      <feGaussianBlur stdDeviation="50.9315" result="effect1_foregroundBlur_261_3352"/>
    </filter>
    <linearGradient id="paint0_linear_261_3352" x1="200.963" y1="131.382" x2="275.592" y2="243.915" gradientUnits="userSpaceOnUse">
      <stop stop-color="#FFE4E6" stop-opacity="0.4"/>
      <stop offset="0.592439" stop-color="#C1121F"/>
    </linearGradient>
    <linearGradient id="paint1_linear_261_3352" x1="200.963" y1="131.382" x2="275.592" y2="243.915" gradientUnits="userSpaceOnUse">
      <stop stop-color="#FFE4E6" stop-opacity="0.4"/>
      <stop offset="0.592439" stop-color="#C1121F"/>
    </linearGradient>
    <linearGradient id="paint2_linear_261_3352" x1="312.491" y1="130.684" x2="386.749" y2="243.941" gradientUnits="userSpaceOnUse">
      <stop stop-color="#FFE4E6" stop-opacity="0.4"/>
      <stop offset="0.592439" stop-color="#C1121F"/>
    </linearGradient>
    <linearGradient id="paint3_linear_261_3352" x1="312.491" y1="130.684" x2="386.749" y2="243.941" gradientUnits="userSpaceOnUse">
      <stop stop-color="#FFE4E6" stop-opacity="0.4"/>
      <stop offset="0.592439" stop-color="#C1121F"/>
    </linearGradient>
    <linearGradient id="paint4_linear_261_3352" x1="200.963" y1="133.08" x2="275.592" y2="245.613" gradientUnits="userSpaceOnUse">
      <stop stop-color="#FFE4E6" stop-opacity="0.4"/>
      <stop offset="0.592439" stop-color="#C1121F"/>
    </linearGradient>
    <linearGradient id="paint5_linear_261_3352" x1="200.963" y1="133.08" x2="275.592" y2="245.613" gradientUnits="userSpaceOnUse">
      <stop stop-color="#FFE4E6" stop-opacity="0.4"/>
      <stop offset="0.592439" stop-color="#C1121F"/>
    </linearGradient>
    <linearGradient id="paint6_linear_261_3352" x1="312.491" y1="132.381" x2="386.749" y2="245.639" gradientUnits="userSpaceOnUse">
      <stop stop-color="#FFE4E6" stop-opacity="0.4"/>
      <stop offset="0.592439" stop-color="#C1121F"/>
    </linearGradient>
    <linearGradient id="paint7_linear_261_3352" x1="312.491" y1="132.381" x2="386.749" y2="245.639" gradientUnits="userSpaceOnUse">
      <stop stop-color="#FFE4E6" stop-opacity="0.4"/>
      <stop offset="0.592439" stop-color="#C1121F"/>
    </linearGradient>
  </defs>
</svg>
