<svg width="129" height="121" viewBox="0 0 129 121" fill="none" xmlns="http://www.w3.org/2000/svg">
<path d="M122.476 50.9251C123.218 43.732 121.985 33.4268 111.905 25.1824C100.698 16.0166 89.9607 17.5096 82.9267 20.376C78.184 22.3083 74.5106 25.0718 72.4001 26.8969C71.3122 24.3275 69.2363 20.2261 65.834 16.3984C60.7881 10.7205 51.8124 4.64108 37.7108 7.9169C25.0261 10.8639 19.3709 19.5661 16.86 26.3475C12.1831 38.9804 14.578 55.5129 22.6838 66.5519C33.141 80.7934 52.209 107.465 52.4005 107.732C52.6569 108.091 53.0265 108.326 53.429 108.42C53.8316 108.514 54.2671 108.466 54.6556 108.257C54.9455 108.101 83.83 92.5891 99.5005 84.4277C111.647 78.1018 121.095 64.325 122.476 50.9251Z" fill="url(#paint0_linear_261_3362)"/>
<path d="M32.891 52.187C33.3731 52.2992 33.8737 52.0953 34.1402 51.6783L37.1632 46.7941L36.6317 70.5564C36.6191 71.1177 37.011 71.6157 37.557 71.7251C38.1063 71.8418 38.6608 71.5515 38.8775 71.0336L51.3276 41.2884L51.0501 60.3227C51.0427 60.8387 51.3747 61.2988 51.8668 61.4541C52.3585 61.6066 52.8947 61.4233 53.185 60.9962L58.0279 53.8657L58.6351 57.4511C58.7138 57.9154 59.0636 58.287 59.5222 58.3938L67.9982 60.3662C68.484 60.4792 68.988 60.2715 69.2528 59.8491L72.271 55.0352L71.7411 78.7268C71.7285 79.2806 72.1065 79.7656 72.644 79.8907C72.6513 79.8924 72.6588 79.8942 72.6662 79.8957C73.2153 80.0123 73.77 79.722 73.9867 79.2041L86.4366 49.4589L86.1591 68.4932C86.1517 69.0092 86.4835 69.4692 86.9757 69.6245C87.4675 69.7771 88.0035 69.5938 88.2938 69.1668L93.1369 62.0362L93.7441 65.6216C93.8229 66.0859 94.1726 66.4575 94.6313 66.5643L114.43 71.1717L114.431 71.1713C114.918 70.4928 115.388 69.8027 115.839 69.1004L95.9183 64.4647L94.9555 58.7803C94.8766 58.3156 94.5265 57.9443 94.0684 57.8376C94.063 57.8364 94.0574 57.8351 94.052 57.8339C93.586 57.7324 93.1052 57.9244 92.8369 58.319L88.5523 64.6273L88.861 43.4486C88.8691 42.8887 88.4834 42.3949 87.9311 42.2876C87.3832 42.1736 86.8312 42.4639 86.6149 42.9804L74.2148 72.6065L74.7013 50.8481C74.7131 50.3225 74.3723 49.8536 73.8687 49.7028C73.3662 49.5519 72.8227 49.7558 72.5434 50.2012L67.7153 57.9017L60.8085 56.2944L59.8456 50.61C59.7667 50.1453 59.4166 49.7739 58.9585 49.6673C58.9532 49.6661 58.9477 49.6648 58.9422 49.6635C58.4762 49.562 57.9953 49.7541 57.727 50.1489L53.4427 56.4569L53.7514 35.2781C53.7597 34.7183 53.3795 34.2257 52.8215 34.1172C52.2736 34.0032 51.7216 34.2935 51.5055 34.81L39.1054 64.4361L39.5926 42.6776C39.6044 42.1538 39.2662 41.6865 38.7651 41.5338C38.2608 41.3783 37.7226 41.581 37.4404 42.0224L32.673 49.4808C32.673 49.4808 20.4221 46.782 14.7854 45.5404C14.88 46.3812 14.9972 47.2201 15.1365 48.0556C20.7477 49.3614 32.891 52.187 32.891 52.187Z" fill="url(#paint1_linear_261_3362)"/>
<defs>
<linearGradient id="paint0_linear_261_3362" x1="75.5709" y1="13.2705" x2="53.4289" y2="108.42" gradientUnits="userSpaceOnUse">
<stop stop-color="#FFB09B"/>
<stop offset="1" stop-color="#FF5325"/>
</linearGradient>
<linearGradient id="paint1_linear_261_3362" x1="69.7929" y1="38.0657" x2="60.7063" y2="77.1127" gradientUnits="userSpaceOnUse">
<stop stop-color="#FFC5C5"/>
<stop offset="1" stop-color="#ECA08C"/>
</linearGradient>
</defs>
</svg>
