<svg width="111" height="119" viewBox="0 0 111 119" fill="none" xmlns="http://www.w3.org/2000/svg">
<path d="M29.549 50.5909C30.7774 47.653 32.6116 46.012 32.7281 45.911C33.4602 45.2763 34.6192 45.3175 35.3232 46.0077C36.0231 46.6962 35.9771 47.741 35.2769 48.4051C34.1248 49.4981 32.2678 52.6948 32.2179 55.8089C32.1686 58.923 32.616 61.5357 37.5268 63.4131C40.6428 64.6033 40.4775 67.1018 40.3549 68.9251C40.2237 70.9285 40.0591 73.4232 42.6061 76.6796C43.6086 77.9632 45.0046 79.0462 46.4827 80.1893C47.2163 80.7578 47.982 81.352 48.7274 82.001C50.5193 79.5995 52.4662 75.2721 52.9161 72.5512C53.4743 69.1814 52.9297 65.7608 51.3442 62.6584L51.0022 61.9881L51.2886 61.3088C51.7981 60.1041 52.1588 58.8518 52.3818 57.5858C51.7005 57.6693 50.8451 57.6485 50.0305 57.4843C46.5775 56.7874 44.1769 54.9661 42.7969 52.5068C40.414 48.2653 41.9337 44.3476 42.5025 42.2528C43.0706 40.1587 43.5408 38.4954 44.2783 36.1491C45.4206 32.5124 46.8401 27.9845 46.7884 26.2692C46.6262 20.9876 43.9566 20.5616 42.9525 20.4009C41.9488 20.2403 41.2612 19.3603 41.4142 18.4366C41.567 17.5109 42.5037 16.8917 43.507 17.0518C46.0099 17.4526 50.243 19.1766 50.4586 26.2394C50.5277 28.4864 49.1444 32.8949 47.8059 37.1573C47.0707 39.4973 46.5076 41.1875 46.0776 43.1068C45.6474 45.0271 44.6239 48.516 46.0534 51.0004C46.9506 52.5597 48.5264 53.6141 50.909 54.1998C51.7711 54.4208 53.8555 53.9417 55.2209 52.4173C56.0921 51.1994 56.6802 49.811 56.9241 48.3405C57.283 46.1718 56.8895 43.9743 55.7895 41.9843L55.1157 40.7663L56.236 39.9126C58.3116 38.331 59.6782 36.1065 60.085 33.6471C60.4267 31.5825 60.0884 29.4855 59.1076 27.5825L58.5002 26.4064L59.5527 25.5728C61.547 23.9965 62.8641 21.8023 63.2636 19.3896C64.2468 13.4512 60.8959 8.65829 55.1167 7.73393C51.1258 7.09604 47.8327 8.14203 45.427 11.5931C41.62 9.77643 36.2418 12.3025 34.5161 15.5079C32.7287 18.8288 32.5505 23.1809 36.0331 29.4008C36.5497 30.3228 37.1261 31.1722 37.7495 31.9271C38.3726 32.679 38.2291 33.744 37.4278 34.3042C37.0123 34.5957 36.5038 34.6954 36.0236 34.6183C35.5755 34.5463 35.1523 34.3217 34.8519 33.9593C34.0947 33.0441 33.3975 32.0208 32.7803 30.9187C30.2909 26.4719 29.9857 21.9444 30.1574 18.9539C22.3769 22.2474 19.8068 30.563 22.0058 35.8288C16.8169 40.9904 21.6074 49.4434 29.549 50.5909Z" fill="url(#paint0_linear_261_3367)"/>
<path d="M44.1612 82.7777C42.479 81.6689 40.9253 80.2722 39.6475 78.6369C36.3129 74.3739 36.5423 70.9289 36.6928 68.6492C36.8159 66.791 36.7439 66.765 36.1848 66.5503C33.3554 65.47 31.5233 64.1506 30.3527 62.6948C28.4612 63.1093 26.6846 63.1196 25.0961 62.8657C20.4182 62.1182 17.2856 59.2875 17.1081 59.1227C16.383 58.4542 16.3674 57.3781 17.0747 56.7187C17.7819 56.0618 18.9452 56.0689 19.6655 56.7321C19.8388 56.8902 23.6721 60.2939 28.7799 59.5234C28.5084 58.4633 27.9999 56.2598 28.5352 53.8878C20.9154 52.6368 14.7777 46.8879 15.9404 39.4598C3.33148 51.724 12.3685 67.2186 24.9368 73.5235C28.3186 75.2206 30.2009 79.2432 29.5051 82.9248C29.3822 83.568 29.1018 84.5154 28.4894 85.519C29.8523 86.0519 31.4226 86.8452 32.9345 87.9175C33.0273 85.3186 33.7694 83.2701 33.8204 83.1355C34.1465 82.2538 35.1958 81.8045 36.1496 82.1188C37.1079 82.4379 37.6205 83.4121 37.2966 84.2928C37.2802 84.3354 35.4096 89.476 37.2956 92.4101C38.2974 93.9686 39.1248 96.3942 39.0068 98.8881C38.9628 99.8235 38.1057 100.535 37.0924 100.475C37.0251 100.47 36.9587 100.464 36.8935 100.453C35.9794 100.307 35.2977 99.5466 35.3407 98.6689C35.6855 91.3617 28.4666 88.9522 25.8969 88.1906C24.4773 89.1467 22.5182 89.9409 19.7937 90.2888C19.6006 90.3149 19.4118 90.3093 19.2297 90.2802C18.4602 90.1577 17.8213 89.5903 17.6933 88.8382C17.5343 87.909 18.2177 87.0512 19.2205 86.9229C23.044 86.4327 25.412 84.781 25.8872 82.271C26.3098 80.046 25.1143 77.4968 23.1659 76.468C16.1978 72.7896 11.4878 68.059 9.11992 62.3889C2.54455 72.736 11.0322 79.2942 17.2034 79.7519C18.1993 79.8401 18.9868 80.6478 18.9259 81.5834C18.8624 82.5199 17.9921 83.2155 16.9801 83.1393C16.4787 83.1014 15.9935 83.0442 15.5232 82.9695C13.4318 82.6355 11.6538 81.9539 10.1685 81.1312C7.52083 87.0359 11.9045 98.5698 24.4951 96.5901C24.3564 104.97 35.7597 111.047 44.2926 104.698C52.6875 98.4508 50.0657 86.6714 44.1612 82.7777Z" fill="url(#paint1_linear_261_3367)"/>
<path d="M63.024 33.2235C62.9547 33.6418 62.92 34.0628 62.9106 34.4829C64.6734 32.9248 66.5327 31.695 67.7142 31.0805C68.1894 30.8344 68.6471 30.602 69.0895 30.3769C73.477 28.1471 75.6767 27.0283 76.3345 21.9902C76.4507 21.0924 77.334 20.4654 78.3071 20.591C79.3035 20.7162 79.9746 21.5493 79.8565 22.4471C78.9871 29.1238 75.5711 30.8606 70.846 33.2637C70.4122 33.4852 69.9613 33.7136 69.4959 33.9552C67.7235 34.8747 65.344 36.6938 63.6799 38.5614L63.6939 38.6035L63.1874 39.2601C62.2051 40.5344 61.5776 41.9594 61.3243 43.4947C61.0838 44.946 61.1928 46.4128 61.6484 47.8577L61.8711 48.5682L61.4519 49.1842C60.3447 50.8054 59.6242 52.5941 59.3084 54.5057C59.0547 56.038 59.1067 57.5979 59.3965 59.1252C60.9776 57.7821 62.919 56.741 65.1517 56.0859C68.3184 55.1527 71.8002 55.1004 74.1882 55.8854C78.5153 52.6507 83.8038 51.3292 89.2044 52.1551C89.2495 52.1623 89.2961 52.1693 89.3407 52.1764C92.4458 52.6729 98.3384 54.6985 100.319 58.7759C102.767 52.5675 101.48 46.8343 94.9327 44.1562C97.3095 39.1161 94.8835 33.5297 92.0511 31.2334C90.0192 34.6726 87.5262 36.2965 84.9698 37.4659C85.5692 38.71 86.9373 41.9928 86.362 45.108C86.1976 45.9897 85.2982 46.5708 84.345 46.4174C84.3344 46.4164 84.3234 46.4143 84.3127 46.4132C83.3471 46.2429 82.6974 45.3809 82.8621 44.4905C83.2688 42.2979 82.2054 39.7483 81.7541 38.8018C78.5654 40.0914 75.5577 41.5582 72.9031 46.2066C72.5418 46.8371 71.7923 47.1496 71.0632 47.0329C70.8747 47.0036 70.6878 46.9463 70.5088 46.8541C69.6408 46.4187 69.3047 45.42 69.7591 44.6247C73.1976 38.605 77.3839 36.9369 81.079 35.466C84.2162 34.2161 86.9414 33.1209 89.078 29.3542L89.6134 28.0665C89.936 27.292 90.1658 26.4968 90.297 25.7026C91.3294 19.4698 86.672 13.5192 79.9172 12.4396C73.1657 11.3607 66.8286 15.5534 65.7968 21.7862C65.5357 23.3657 65.6346 24.9604 66.0934 26.5259L66.3479 27.3952L65.7001 28.0489C64.2707 29.4901 63.346 31.2805 63.024 33.2235Z" fill="url(#paint2_linear_261_3367)"/>
<path d="M96.9723 81.0241C95.2054 82.4462 93.395 83.5348 93.0855 83.716C92.7035 83.9411 92.2609 84.0131 91.8429 83.946C91.3636 83.8695 90.916 83.6134 90.6289 83.204C90.0905 82.4368 90.3158 81.4229 91.134 80.9394C92.0075 80.4214 94.0461 79.0903 95.5355 77.7384L95.5151 77.7019L96.331 76.8642C98.2064 74.9385 99.4229 72.5631 99.8486 69.9941C100.421 66.5353 99.5207 63.0361 97.3248 60.1154C97.2273 59.9815 97.1377 59.8476 97.0316 59.7194L96.9249 59.5818C95.1192 57.4874 92.0943 55.9458 88.6926 55.3962C85.9728 54.9791 80.6693 54.8984 75.7075 59.0446L74.7289 59.8598L73.5891 59.2021C72.5702 58.6177 69.63 58.2321 66.2863 59.2169C63.9107 59.9146 60.9556 61.579 59.2369 65.0249C56.5328 70.4449 60.3514 74.6365 61.7177 76.0458C62.3817 76.7307 62.5698 77.6752 61.9449 78.3586C61.5315 78.8133 60.9069 78.9996 60.3116 78.9043C60.0081 78.8562 59.7113 78.7346 59.4559 78.5344C58.261 77.6037 56.7234 75.8597 55.7286 73.5648C55.0614 74.744 54.5796 76.0134 54.3579 77.3525C53.9325 79.925 54.3896 82.5342 55.6813 84.8959L56.0627 85.597C57.2021 87.4706 58.9467 89.4245 60.3038 90.937C60.949 91.6572 61.5264 92.3027 61.9583 92.8391C66.0108 97.8619 64.0674 102.67 62.4742 104.512C62.0627 104.984 61.4196 105.184 60.8113 105.087C60.5155 105.04 60.2307 104.923 59.9802 104.735C59.2162 104.162 59.082 103.133 59.6803 102.435C59.9791 102.076 62.4431 98.879 59.1311 94.7711C58.7291 94.273 58.1918 93.6746 57.5929 93.0075C56.561 91.8568 55.3264 90.4699 54.2243 88.9956C54.0636 89.4479 53.9294 89.9067 53.8505 90.3858C53.644 91.6307 53.7321 92.8869 54.1103 94.1192L54.3665 94.9572L53.7677 95.6111C52.4986 97.0019 51.6712 98.6885 51.3748 100.478C50.4658 105.968 54.5665 111.206 60.5151 112.157C64.6776 112.823 68.7516 111.261 71.1503 108.082L71.5746 107.518L72.3155 107.415C74.3879 107.131 76.2716 106.193 77.6879 104.816C76.2217 104.367 74.9022 103.641 73.7947 102.644C71.7127 100.77 70.6559 98.1773 70.8981 95.526C71.1214 93.0945 72.3993 90.572 73.6271 88.6522C72.0379 88.8472 70.4546 88.8009 69.0473 88.5759C67.5464 88.3363 66.2479 87.8999 65.3586 87.3555C64.5333 86.8524 64.2915 85.832 64.8192 85.076C65.3478 84.3226 66.4424 84.1206 67.2707 84.6232C69.0735 85.7227 75.3547 86.2515 78.1956 82.9895C81.1127 79.6104 82.0795 77.745 81.6486 75.6832C81.2343 73.6971 79.8541 72.7463 78.7696 72.298C76.78 71.4796 74.2377 71.7167 72.1495 72.9293C71.3248 73.4081 70.2286 73.1705 69.6958 72.3999C69.1638 71.6281 69.3988 70.6151 70.2213 70.1373C72.7842 68.6518 75.8595 68.1963 78.5942 68.8243C80.0121 65.9885 79.8513 62.9608 79.8501 62.9276C79.7932 62.0219 80.5422 61.2597 81.5203 61.2254C82.4867 61.1956 83.336 61.8991 83.3932 62.8054C83.4025 62.9777 83.5971 66.6558 81.8369 70.2182C83.541 71.3934 84.7121 73.1079 85.1325 75.1201C86.0247 79.3991 83.2943 82.6304 78.7669 87.5443C78.7513 87.5631 74.7794 92.106 74.4354 95.8663C74.2822 97.52 74.9145 99.1679 76.2405 100.307C84.7592 107.627 99.2076 94.4838 96.9723 81.0241Z" fill="url(#paint3_linear_261_3367)"/>
<defs>
<linearGradient id="paint0_linear_261_3367" x1="46.1469" y1="6.0059" x2="79.8576" y2="40.6084" gradientUnits="userSpaceOnUse">
<stop stop-color="#9B99FF"/>
<stop offset="1" stop-color="#1C18FF"/>
</linearGradient>
<linearGradient id="paint1_linear_261_3367" x1="35.7111" y1="43.2555" x2="64.3172" y2="85.168" gradientUnits="userSpaceOnUse">
<stop stop-color="#9B99FF"/>
<stop offset="1" stop-color="#1C18FF"/>
</linearGradient>
<linearGradient id="paint2_linear_261_3367" x1="88.1765" y1="14.0185" x2="110.061" y2="50.0448" gradientUnits="userSpaceOnUse">
<stop stop-color="#9B99FF"/>
<stop offset="1" stop-color="#1C18FF"/>
</linearGradient>
<linearGradient id="paint3_linear_261_3367" x1="81.2515" y1="53.9601" x2="109.27" y2="92.6197" gradientUnits="userSpaceOnUse">
<stop stop-color="#9B99FF"/>
<stop offset="1" stop-color="#1C18FF"/>
</linearGradient>
</defs>
</svg>
