<svg width="158" height="158" viewBox="0 0 158 158" fill="none" xmlns="http://www.w3.org/2000/svg">
<g clip-path="url(#clip0_261_3372)">
<path d="M13.9182 67.6427C46.8919 75.316 79.8428 54.8248 87.55 21.8678C79.9146 54.8415 100.433 87.7754 133.407 95.4486C100.411 87.7702 67.438 108.294 59.7596 141.29C67.438 108.294 46.9141 75.3211 13.9182 67.6427Z" fill="url(#paint0_linear_261_3372)"/>
</g>
<g clip-path="url(#clip1_261_3372)">
<path d="M94.131 44.7105C109.702 48.334 125.262 38.6576 128.902 23.0946C125.296 38.6655 134.985 54.2176 150.556 57.8411C134.975 54.2152 119.404 63.907 115.778 79.4884C119.404 63.907 109.712 48.3364 94.131 44.7105Z" fill="url(#paint1_linear_261_3372)"/>
</g>
<defs>
<linearGradient id="paint0_linear_261_3372" x1="87.55" y1="21.8678" x2="59.7442" y2="141.356" gradientUnits="userSpaceOnUse">
<stop stop-color="#F1C1FF"/>
<stop offset="1" stop-color="#C623F6"/>
</linearGradient>
<linearGradient id="paint1_linear_261_3372" x1="128.902" y1="23.0946" x2="115.771" y2="79.5196" gradientUnits="userSpaceOnUse">
<stop stop-color="#F1C1FF"/>
<stop offset="1" stop-color="#C623F6"/>
</linearGradient>
<clipPath id="clip0_261_3372">
<rect width="122.681" height="122.681" fill="white" transform="translate(27.8057 7.96484) rotate(13.1)"/>
</clipPath>
<clipPath id="clip1_261_3372">
<rect width="57.9329" height="57.9327" fill="white" transform="translate(100.689 16.5293) rotate(13.1)"/>
</clipPath>
</defs>
</svg>
